# xmcd
#
# Track frame offsets:
#	150
#	19630
#	36537
#
# Disc length: 723 seconds
#
# Revision: 0
# Processed by: cddbd v1.5.2PL0 Copyright (c) Steve Scherf et al.
# Submitted via: audiograbber 1.83.01
#
DISCID=1e02d103
DTITLE=Eric Clapton - (I) Get Lost
DYEAR=1999
DGENRE=Blues
TTITLE0=(I) Get Lost (Album  Version)
TTITLE1=(I) Get Lost (David Morales Radio Edit)
TTITLE2=Main Title - (I) Get Lost
EXTD=
EXTT0=
EXTT1=
EXTT2=
PLAYORDER=
